<svg width="26" height="26" viewBox="0 0 26 26" fill="none" xmlns="http://www.w3.org/2000/svg">
<path fill-rule="evenodd" clip-rule="evenodd" d="M11.1854 4.67675C11.6469 2.77442 14.3531 2.77442 14.8146 4.67675C14.955 5.2564 15.3639 5.73411 15.9149 5.96239C16.4659 6.19067 17.0928 6.14207 17.602 5.83158C19.2736 4.81325 21.1878 6.72642 20.1695 8.39908C19.8595 8.90809 19.811 9.5345 20.039 10.0852C20.267 10.6358 20.7441 11.0446 21.3232 11.1854C23.2256 11.6469 23.2256 14.3531 21.3232 14.8146C20.7436 14.955 20.2659 15.3639 20.0376 15.9149C19.8093 16.4659 19.8579 17.0928 20.1684 17.602C21.1868 19.2736 19.2736 21.1878 17.6009 20.1695C17.0919 19.8595 16.4655 19.811 15.9148 20.039C15.3642 20.267 14.9554 20.7441 14.8146 21.3232C14.3531 23.2256 11.6469 23.2256 11.1854 21.3232C11.045 20.7436 10.6361 20.2659 10.0851 20.0376C9.53412 19.8093 8.90723 19.8579 8.398 20.1684C6.72642 21.1868 4.81217 19.2736 5.8305 17.6009C6.14054 17.0919 6.18902 16.4655 5.96101 15.9148C5.733 15.3642 5.25587 14.9554 4.67675 14.8146C2.77442 14.3531 2.77442 11.6469 4.67675 11.1854C5.2564 11.045 5.73411 10.6361 5.96239 10.0851C6.19067 9.53412 6.14207 8.90723 5.83158 8.398C4.81325 6.72642 6.72642 4.81217 8.39908 5.8305C9.47808 6.48917 10.8864 5.90633 11.1854 4.67675Z" stroke="#202842" stroke-width="1.625" stroke-linecap="round" stroke-linejoin="round"/>
<circle cx="13" cy="13" r="3.25" stroke="#202842" stroke-width="1.625" stroke-linecap="round" stroke-linejoin="round"/>
</svg>
